<svg xmlns="http://www.w3.org/2000/svg" viewBox="0 0 100 100" width="32" height="32">
  <!-- Cabeça do coala -->
  <circle cx="50" cy="45" r="25" fill="#8B7355" stroke="#654321" stroke-width="2"/>
  
  <!-- Orelhas do coala -->
  <ellipse cx="35" cy="30" rx="8" ry="12" fill="#8B7355" stroke="#654321" stroke-width="1"/>
  <ellipse cx="65" cy="30" rx="8" ry="12" fill="#8B7355" stroke="#654321" stroke-width="1"/>
  
  <!-- Olhos do coala -->
  <circle cx="42" cy="40" r="4" fill="#000"/>
  <circle cx="58" cy="40" r="4" fill="#000"/>
  <circle cx="44" cy="38" r="1.5" fill="#FFF"/>
  <circle cx="60" cy="38" r="1.5" fill="#FFF"/>
  
  <!-- Nariz do coala -->
  <ellipse cx="50" cy="48" rx="3" ry="2" fill="#654321"/>
  
  <!-- Boca do coala -->
  <path d="M 45 52 Q 50 55 55 52" stroke="#654321" stroke-width="1.5" fill="none"/>
  
  <!-- Corpo do coala -->
  <ellipse cx="50" cy="75" rx="20" ry="25" fill="#8B7355" stroke="#654321" stroke-width="2"/>
  
  <!-- Braços do coala -->
  <ellipse cx="30" cy="65" rx="8" ry="15" fill="#8B7355" stroke="#654321" stroke-width="1"/>
  <ellipse cx="70" cy="65" rx="8" ry="15" fill="#8B7355" stroke="#654321" stroke-width="1"/>
  
  <!-- Patas do coala -->
  <ellipse cx="40" cy="95" rx="6" ry="8" fill="#8B7355" stroke="#654321" stroke-width="1"/>
  <ellipse cx="60" cy="95" rx="6" ry="8" fill="#8B7355" stroke="#654321" stroke-width="1"/>
  
  <!-- Detalhes das patas -->
  <circle cx="38" cy="98" r="1.5" fill="#654321"/>
  <circle cx="42" cy="98" r="1.5" fill="#654321"/>
  <circle cx="58" cy="98" r="1.5" fill="#654321"/>
  <circle cx="62" cy="98" r="1.5" fill="#654321"/>
</svg>


